<svg width="24" height="24" viewBox="0 0 24 24" fill="none" xmlns="http://www.w3.org/2000/svg">
<g clip-path="url(#clip0)">
<path d="M22.378 7.77313e-07H1.622C1.20423 0.0234823 0.809316 0.198364 0.511147 0.491932C0.212978 0.7855 0.0319755 1.17764 0.002 1.595L0 22.378C0.058 23.254 0.712 23.921 1.556 23.998C1.57094 23.9997 1.58597 24.0003 1.601 24H22.398C22.4124 24 22.4267 23.9993 22.441 23.998C22.8664 23.9573 23.2615 23.76 23.5496 23.4444C23.8377 23.1288 23.9982 22.7173 24 22.29V1.71C23.9983 1.27835 23.8344 0.863119 23.5408 0.546716C23.2472 0.230314 22.8453 0.035877 22.415 0.00200078C22.4027 0.000641667 22.3904 -2.60522e-05 22.378 7.77313e-07V7.77313e-07ZM22.378 0.496001C22.6843 0.518516 22.9707 0.656292 23.1795 0.881567C23.3882 1.10684 23.5038 1.40287 23.503 1.71V22.29C23.503 22.927 23.016 23.45 22.399 23.504H1.602C1.3137 23.4789 1.04383 23.3517 0.841044 23.1453C0.638257 22.9388 0.51589 22.6667 0.496 22.378V1.628C0.537 1.018 1.018 0.536001 1.622 0.496001H22.378ZM4.795 8.26V15.624H2.89V8.26H4.795ZM11.332 8.26V15.624H9.671V10.654L9 15.623H7.813L7.114 10.761L7.108 15.623H5.44V8.26H7.908C7.983 8.708 8.057 9.23 8.138 9.834L8.41 11.705L8.85 8.26H11.332ZM14.309 9.59C14.384 9.63 14.431 9.697 14.451 9.793C14.479 9.888 14.486 10.104 14.486 10.437V13.292C14.486 13.78 14.451 14.078 14.39 14.187C14.33 14.302 14.16 14.357 13.888 14.357V9.52C14.092 9.52 14.234 9.54 14.309 9.588V9.59ZM14.289 15.624C14.743 15.624 15.089 15.597 15.313 15.55C15.543 15.502 15.733 15.414 15.883 15.285C16.0452 15.1511 16.159 14.9678 16.207 14.763C16.268 14.539 16.309 14.098 16.309 13.441V10.857C16.309 10.159 16.282 9.691 16.235 9.454C16.1942 9.21388 16.0856 8.99043 15.922 8.81C15.753 8.613 15.502 8.477 15.177 8.389C14.857 8.308 14.323 8.26 13.407 8.26H11.983V15.624H14.288H14.289ZM19.429 13.841C19.429 14.194 19.409 14.417 19.374 14.512C19.341 14.607 19.184 14.654 19.069 14.654C18.961 14.654 18.879 14.607 18.845 14.519C18.805 14.431 18.785 14.221 18.785 13.896V11.949C18.785 11.616 18.805 11.406 18.839 11.325C18.873 11.245 18.947 11.203 19.056 11.203C19.171 11.203 19.326 11.244 19.367 11.345C19.408 11.44 19.428 11.644 19.428 11.949V13.841H19.429ZM16.954 8.261V15.624H18.669L18.784 15.156C18.94 15.346 19.11 15.489 19.3 15.584C19.482 15.672 19.76 15.719 19.978 15.719C20.282 15.719 20.541 15.644 20.758 15.482C20.9585 15.3481 21.1068 15.1493 21.178 14.919C21.232 14.702 21.266 14.376 21.266 13.935V11.868C21.2721 11.5782 21.2608 11.2884 21.232 11C21.2074 10.8491 21.1493 10.7056 21.062 10.58C20.9525 10.4323 20.8049 10.3172 20.635 10.247C20.2005 10.0906 19.7244 10.0952 19.293 10.26C19.0983 10.3579 18.9252 10.494 18.784 10.66V8.26H16.954V8.261Z" fill="black"/>
</g>
<defs>
<clipPath id="clip0">
<rect width="24" height="24" fill="white"/>
</clipPath>
</defs>
</svg>
